<svg width="28" height="29" viewBox="0 0 28 29" fill="none" xmlns="http://www.w3.org/2000/svg">
<path d="M12.1268 11.4035C12.1268 13.1083 10.9954 14.4902 9.29063 14.4902C7.58587 14.4902 6.48804 13.1083 6.48804 11.4035C6.48804 9.69875 7.58587 8.31677 9.29063 8.31677C10.9954 8.31677 12.1268 9.69875 12.1268 11.4035Z" fill="#FAFAFA"/>
<path d="M15.344 17.942C16.844 19.442 16.6777 21.6754 14.1312 21.6754H9.66564H4.80705C2.56717 21.6754 2.6201 19.5 3.6201 18.5C4.6201 17.5 6.82996 15.7019 9.66576 15.7019C12.3889 15.7019 13.844 16.442 15.344 17.942Z" fill="#FAFAFA"/>
<path d="M21.7159 10.6349C21.7159 12.5679 20.4331 14.1349 18.5001 14.1349C16.5671 14.1349 15.3223 12.5679 15.3223 10.6349C15.3223 8.70189 16.5671 7.13489 18.5001 7.13489C20.4331 7.13489 21.7159 8.70189 21.7159 10.6349Z" fill="#FAFAFA"/>
<path d="M22.9654 22.1754C23.6723 22.1754 24.264 22.0205 24.7169 21.7194C25.1765 21.4139 25.4623 20.9776 25.5764 20.4838C25.7997 19.5178 25.3604 18.4171 24.5318 17.5884C23.7527 16.8094 22.9611 16.2036 21.9905 15.7981C21.0212 15.3931 19.907 15.2019 18.5 15.2019C16.6407 15.2019 15.2896 15.677 14.2673 16.2987C13.3915 16.8313 12.7658 17.4695 12.3012 17.9432C12.2308 18.015 12.1641 18.0831 12.1008 18.1464C11.4933 18.7539 11.1634 19.7158 11.3437 20.5664C11.4367 21.0049 11.6681 21.4199 12.0713 21.7207C12.4717 22.0194 13.001 22.1754 13.6413 22.1754H18.4999H22.9654Z" fill="#FAFAFA" stroke="black"/>
</svg>
